<svg xmlns="http://www.w3.org/2000/svg" viewBox="0 0 655.95 553.33"><defs><style>.cls-1{font-size:48px;font-family:KozGoPr6N-Regular-90ms-RKSJ-H, Kozuka Gothic Pr6N;}.cls-1,.cls-17{fill:#fff;}.cls-2{letter-spacing:-0.04em;}.cls-3{letter-spacing:-0.02em;}.cls-4{letter-spacing:-0.03em;}.cls-5{letter-spacing:-0.04em;}.cls-6{letter-spacing:-0.02em;}.cls-7{letter-spacing:-0.02em;}.cls-8{letter-spacing:-0.02em;}.cls-9{letter-spacing:-0.03em;}.cls-10{letter-spacing:-0.02em;}.cls-11{letter-spacing:-0.02em;}.cls-12{letter-spacing:-0.02em;}.cls-13{letter-spacing:-0.06em;}.cls-14{letter-spacing:-0.02em;}.cls-15{letter-spacing:-0.01em;}.cls-16{letter-spacing:-0.02em;}</style></defs><title>logo</title><g id="Layer_1" data-name="Layer 1"><text class="cls-1" transform="translate(13.87 307.5)"><tspan class="cls-2">C</tspan><tspan class="cls-3" x="28.01" y="0">o</tspan><tspan class="cls-4" x="55.35" y="0">n</tspan><tspan class="cls-5" x="82.39" y="0">t</tspan><tspan class="cls-6" x="97.7" y="0">e</tspan><tspan class="cls-4" x="122.59" y="0">n</tspan><tspan x="149.63" y="0">t </tspan><tspan class="cls-7" x="177.81" y="0">M</tspan><tspan class="cls-8" x="218.4" y="0">a</tspan><tspan class="cls-9" x="242.02" y="0">n</tspan><tspan class="cls-10" x="269.4" y="0">a</tspan><tspan class="cls-11" x="293.22" y="0">g</tspan><tspan class="cls-6" x="321.23" y="0">e</tspan><tspan class="cls-12" x="346.12" y="0">m</tspan><tspan class="cls-6" x="388.67" y="0">e</tspan><tspan class="cls-4" x="413.56" y="0">n</tspan><tspan x="440.6" y="0">t </tspan><tspan class="cls-13" x="468.78" y="0">S</tspan><tspan class="cls-14" x="491.41" y="0">y</tspan><tspan class="cls-15" x="514.56" y="0">s</tspan><tspan class="cls-5" x="534.42" y="0">t</tspan><tspan class="cls-16" x="549.73" y="0">e</tspan><tspan x="574.62" y="0">m</tspan></text></g><g id="Layer_2" data-name="Layer 2"><path class="cls-17" d="M93.67,263.59q-26.34,0-46.09-11.68a79.81,79.81,0,0,1-30.67-32.79Q6,198,6,169.8v-69Q6,72.38,16.91,51.27A79.75,79.75,0,0,1,47.58,18.48Q67.34,6.79,93.67,6.8a85,85,0,0,1,70.26,35.47q12.23,16.78,16.55,39.28H144.27a54.88,54.88,0,0,0-29.11-35.3,49,49,0,0,0-21.49-5q-23.22,0-37.34,16.35T42.21,100.76v69q0,26.82,14.12,43.09t37.34,16.26a55.76,55.76,0,0,0,31-9.51q14.55-9.52,19.58-27.34h36.21a89.66,89.66,0,0,1-16.63,37.46,85.71,85.71,0,0,1-30.33,24.92A88.66,88.66,0,0,1,93.67,263.59Z" transform="translate(-5.99 -6.8)"/><path class="cls-17" d="M330,175.51,404,9.39h33.09V261H402.61V72.55l1.73,11.08L342.31,226h-24.6l-62-138.95,1.74-14.54V261H222.92V9.39H256Z" transform="translate(-5.99 -6.8)"/><path class="cls-17" d="M569.41,263.59q-27.37,0-50.16-7.79a126.29,126.29,0,0,1-41.16-23.36l22-27a99.85,99.85,0,0,0,31.71,18.69,110.4,110.4,0,0,0,37.6,6.22q27.38,0,42.45-10.12t15.08-28.64v-.17q0-14.35-7.63-22t-20-11.33A216,216,0,0,0,572.18,152q-14-2.59-28.5-5.89a96.09,96.09,0,0,1-26.6-10.21,52.1,52.1,0,0,1-19.58-20q-7.46-13.07-7.45-35.21v-.18q0-35.12,23.39-54.42t66-19.29a124.22,124.22,0,0,1,39.68,6.49A139.68,139.68,0,0,1,656.91,33.1l-20.1,28Q608.22,40,579.46,40q-25.82,0-40.11,10.3t-14.3,29.15v.18q0,14.19,8.32,21.54t21.75,11q13.43,3.63,28.84,6.75,13.88,2.76,27.73,6.66a91.55,91.55,0,0,1,25.21,11.25A53.64,53.64,0,0,1,655.1,157q6.84,12.8,6.84,33.39v.35q0,34.78-24.26,53.81T569.41,263.59Z" transform="translate(-5.99 -6.8)"/></g></svg>